<?xml version="1.0"?>
<svg width="223" height="30" xmlns="http://www.w3.org/2000/svg" xmlns:svg="http://www.w3.org/2000/svg" version="1.1">
 <!-- Generator: Sketch 53.2 (72643) - https://sketchapp.com -->
 <title>Artboard</title>
 <desc>Created with Sketch.</desc>
 <g class="layer">
  <title>Layer 1</title>
  <g fill="none" fill-rule="evenodd" id="Artboard">
   <rect fill="#FF5E5B" height="30" id="Rectangle" rx="8" width="223" x="0" y="0"/>
   <g fill-rule="nonzero" id="Group" transform="matrix(1 0 0 1 0 0)">
    <path d="m41.42,7l1.61,0c3.1,0 5.61,2.51 5.61,5.61l0,0.33c0,3.11 -2.51,5.62 -5.61,5.62l-1.61,0l0,1.69c0,1.43 -1.16,2.59 -2.59,2.59l-12.24,0c-1.43,0 -2.59,-1.16 -2.59,-2.59l0,-11.95c0,-0.72 0.58,-1.3 1.3,-1.3l16.12,0zm0,3l0,5.56l1.46,0c1.54,0 2.79,-1.24 2.79,-2.78c0,-1.54 -1.25,-2.78 -2.79,-2.78l-1.46,0z" fill="#FFFFFF" id="Rectangle-2"/>
    <path d="m32.36,12.28c0.4,-1.17 1.35,-1.76 2.85,-1.76c2.24,0 3.07,2.79 1.9,4.62c-0.79,1.22 -2.37,2.76 -4.75,4.62c-2.38,-1.86 -3.96,-3.4 -4.75,-4.62c-1.17,-1.83 -0.34,-4.62 1.9,-4.62c1.5,0 2.45,0.59 2.85,1.76z" fill="#FF5E5B" id="Path-2"/>
   </g>
   <text fill="#ffffff" font-family="Sans-serif" font-size="19" font-weight="bold" id="svg_1" stroke-width="0" text-anchor="middle" x="128.7" xml:space="preserve" y="20.87">buy me a coffee</text>
  </g>
 </g>
</svg>